<?xml version="1.0" encoding="UTF-8"?><svg id="Layer_1" xmlns="http://www.w3.org/2000/svg" viewBox="0 0 521.53 195.7"><defs><style>.cls-1{fill:#fff;}</style></defs><path class="cls-1" d="M102.9,93.66V6.03h170.39V38.53h-60.68v31.85h54.34v32.14h-54.41v62.92h-38V38.55h-36.67V169.15c-3.73,1.41-6.11,.26-8.67-2.15-30.33-28.53-60.77-56.94-91.18-85.39-.72-.67-1.45-1.32-2.98-2.7v86.56H0V0C2.42,1.25,4.5,1.82,5.89,3.12c31.54,29.44,63,58.95,94.49,88.45,.47,.44,.99,.83,2.52,2.08Z"/><path class="cls-1" d="M371.75,165.58h-38.12V39.62h-50.43V6.03h138.73V39.3h-50.17v126.28Z"/><path class="cls-1" d="M285.64,195.68c0-1.77-.05-2.91,0-4.05,.28-5.3,.6-10.61,.94-16.67h6.04c55.48,0,110.95,0,166.43,0,1.67,0,3.33,0,5-.03,4.18-.07,7.76-1.22,8.53-5.95,.77-4.7-1.36-8.35-5.62-10.04-3-1.19-6.45-1.65-9.72-1.73-8.95-.22-17.91-.08-27.16-.08v-20c1.67-.09,3.42-.26,5.17-.26,9.33-.03,18.66,.03,27.99-.03,4.23-.03,8.1-.95,9.27-5.81,1.05-4.33-1.5-9.02-6.22-10.65-2.91-1.01-6.17-1.35-9.28-1.42-8.81-.18-17.63-.06-26.84-.06v-20h58.13v18.3c-2.67,.17-5.28,.33-8.65,.54,5.51,5.9,10.22,11.64,10.42,19.88,.2,8.39-3.29,14.35-10.53,18.25,2.25,2.54,4.46,4.62,6.17,7.04,4.99,7.06,5.65,14.85,2.59,22.76-3.08,7.95-10.48,8.92-17.65,9.97-.65,.1-1.33,.02-2,.02-59.64,0-119.28,0-178.92,0h-4.1Z"/><path class="cls-1" d="M472.64,82.27c2.04-5.12,4.04-9.48,5.48-14.03,.61-1.92,.56-4.44-.19-6.29-.63-1.55-2.58-3.25-4.17-3.49-1.18-.18-3.31,1.56-3.97,2.94-1.86,3.89-3.08,8.07-4.73,12.06-4.03,9.73-9.66,13.62-18.44,12.91-9.82-.79-16.55-6.28-18.58-15.95-1.9-9.04-.89-17.93,3.52-26.17,.61-1.14,2.38-2.23,3.69-2.32,4.13-.3,8.3-.11,13.15-.11-1.63,3.03-3.32,5.47-4.31,8.17-1.46,4.01-3.01,8.15-3.33,12.33-.04,.49,.1,.99,.34,1.5,1.52,3.16,5.82,3.91,8.37,1.5,.37-.35,.68-.73,.91-1.16,2.38-4.53,3.52-9.71,5.86-14.27,3.49-6.78,9.22-10.32,17.12-9.53,9.8,.98,16.36,7.5,17.56,17.34,1.03,8.51-.74,16.56-4.08,24.29-.44,1.02-2.13,2.25-3.12,2.15-3.75-.36-7.46-1.22-11.07-1.88Z"/><path class="cls-1" d="M430.1,6.16h58.37c.89,6.74,1.76,13.36,2.68,20.36h-61.05V6.16Z"/><path class="cls-1" d="M510.43,5.26c6.04,0,11.16,5.14,11.1,11.12-.06,6.34-5.25,11.43-11.51,11.29-6.11-.13-11.16-5.25-11.04-11.18,.13-6.49,4.98-11.24,11.45-11.23Z"/></svg>